<?xml version="1.0" standalone="no"?>
<!DOCTYPE svg PUBLIC "-//W3C//DTD SVG 20010904//EN"
 "http://www.w3.org/TR/2001/REC-SVG-20010904/DTD/svg10.dtd">
<svg version="1.0" xmlns="http://www.w3.org/2000/svg"
 width="512.000000pt" height="512.000000pt" viewBox="0 0 512.000000 512.000000"
 preserveAspectRatio="xMidYMid meet">
<metadata>
Created by potrace 1.14, written by Peter Selinger 2001-2017
</metadata>
<g transform="translate(0.000000,512.000000) scale(0.100000,-0.100000)"
fill="#000000" stroke="none">
<path d="M3623 5065 c-29 -7 -53 -11 -53 -9 0 8 -137 -53 -247 -111 -507 -264
-943 -689 -1232 -1198 -33 -60 -61 -110 -61 -113 0 -2 -12 -28 -26 -57 -59
-120 -152 -374 -184 -504 l-13 -51 -236 -4 -236 -3 -47 -28 c-63 -37 -101
-100 -102 -171 -1 -66 8 -87 126 -290 54 -93 98 -172 98 -177 0 -5 3 -9 8 -9
4 0 12 -10 18 -23 5 -12 53 -96 106 -187 52 -91 164 -284 248 -430 84 -146
161 -277 171 -292 10 -15 19 -29 19 -32 0 -3 25 -46 55 -97 30 -50 55 -93 55
-95 0 -17 119 -196 146 -220 84 -74 200 -69 279 11 23 24 100 146 180 285 77
135 145 252 150 262 6 9 17 29 26 45 17 30 199 348 257 448 19 33 43 76 54 95
11 19 93 160 181 313 88 154 166 295 173 315 39 109 -7 217 -111 263 -35 15
-68 20 -145 21 l-99 0 31 62 c58 115 150 248 253 365 56 64 217 201 298 255
45 30 142 84 214 121 87 43 151 83 187 116 184 168 260 413 202 644 -50 197
-201 369 -386 442 -119 47 -254 61 -357 38z m239 -353 c65 -28 123 -85 155
-150 55 -113 30 -262 -61 -353 -19 -20 -84 -60 -143 -90 -326 -161 -564 -368
-778 -674 -61 -88 -194 -348 -223 -438 -28 -86 -28 -130 2 -193 40 -87 113
-127 232 -128 41 0 74 -2 74 -5 0 -2 -20 -38 -44 -80 -24 -42 -53 -92 -64
-111 -44 -79 -213 -372 -267 -465 -32 -55 -70 -121 -84 -146 -103 -183 -287
-499 -291 -499 -5 0 -30 43 -211 355 -142 247 -448 774 -496 858 -25 43 -43
81 -39 84 3 3 70 7 148 8 161 1 203 13 269 77 49 47 65 79 104 221 52 188 93
298 172 466 73 156 234 404 354 546 72 86 299 305 394 381 186 148 471 319
585 351 60 17 155 10 212 -15z"/>
<path d="M109 1973 c-19 -8 -44 -24 -57 -36 -54 -50 -52 -29 -51 -876 0 -758
1 -788 20 -838 24 -63 79 -122 145 -154 l49 -24 2326 -1 c1748 -1 2337 2 2372
11 88 22 169 101 195 190 9 30 11 248 9 836 l-2 796 -29 37 c-56 74 -152 91
-228 41 -77 -51 -72 -1 -73 -833 l0 -742 -2225 2 -2224 3 -1 740 0 740 -23 37
c-43 70 -132 101 -203 71z"/>
</g>
</svg>
